REM DIRINDEX 1\6,1\2\7,1\2\8,1\2\9,1\3\10,1\3\11,1\4\12,1\4\13,1\4\14,1\5\15,1\5\16,1\5\17
REM DIRNAME folder01,folder02,folder03,folder04,folder05,folder06,folder07,folder08,folder09,folder10,folder11,folder12,folder13,folder14,folder15,folder16,folder17
TITLE ""
FILE "P2Q_t_0929-0946.mp3" MP3
  TRACK 01 AUDIO
    TITLE "10:cjc040_3513"
    INDEX 01 00:00:00
  TRACK 02 AUDIO
    TITLE "0:"
    INDEX 01 00:01:09
  TRACK 03 AUDIO
    TITLE "11:cjc040_3514"
    INDEX 01 00:01:64
  TRACK 04 AUDIO
    TITLE "0:"
    INDEX 01 00:05:24
  TRACK 05 AUDIO
    TITLE "10:cjc040_3515"
    INDEX 01 00:06:06
  TRACK 06 AUDIO
    TITLE "0:"
    INDEX 01 00:07:05
  TRACK 07 AUDIO
    TITLE "11:cjc040_3516"
    INDEX 01 00:07:60
  TRACK 08 AUDIO
    TITLE "0:"
    INDEX 01 00:08:62
  TRACK 09 AUDIO
    TITLE "10:cjc040_3517"
    INDEX 01 00:09:40
  TRACK 10 AUDIO
    TITLE "0:"
    INDEX 01 00:11:11
  TRACK 11 AUDIO
    TITLE "11:cjc040_3518"
    INDEX 01 00:11:64
  TRACK 12 AUDIO
    TITLE "0:"
    INDEX 01 00:13:69
  TRACK 13 AUDIO
    TITLE "10:cjc040_3519"
    INDEX 01 00:14:49
  TRACK 14 AUDIO
    TITLE "0:"
    INDEX 01 00:15:60
  TRACK 15 AUDIO
    TITLE "11:cjc040_3520"
    INDEX 01 00:16:38
  TRACK 16 AUDIO
    TITLE "0:"
    INDEX 01 00:17:51
  TRACK 17 AUDIO
    TITLE "10:cjc040_3521"
    INDEX 01 00:18:31
  TRACK 18 AUDIO
    TITLE "0:"
    INDEX 01 00:19:54
  TRACK 19 AUDIO
    TITLE "11:cjc040_3522"
    INDEX 01 00:20:34
  TRACK 20 AUDIO
    TITLE "0:"
    INDEX 01 00:21:33
  TRACK 21 AUDIO
    TITLE "10:cjc040_3523"
    INDEX 01 00:22:11
  TRACK 22 AUDIO
    TITLE "0:"
    INDEX 01 00:23:30
  TRACK 23 AUDIO
    TITLE "11:cjc040_3524"
    INDEX 01 00:24:08
  TRACK 24 AUDIO
    TITLE "0:"
    INDEX 01 00:27:63
  TRACK 25 AUDIO
    TITLE "10:cjc040_3525"
    INDEX 01 00:28:45
  TRACK 26 AUDIO
    TITLE "0:"
    INDEX 01 00:29:66
  TRACK 27 AUDIO
    TITLE "11:cjc040_3526"
    INDEX 01 00:30:46
  TRACK 28 AUDIO
    TITLE "0:"
    INDEX 01 00:31:63
  TRACK 29 AUDIO
    TITLE "10:cjc040_3527"
    INDEX 01 00:32:43
  TRACK 30 AUDIO
    TITLE "0:"
    INDEX 01 00:33:56
  TRACK 31 AUDIO
    TITLE "11:cjc040_3528"
    INDEX 01 00:34:40
  TRACK 32 AUDIO
    TITLE "0:"
    INDEX 01 00:37:59
  TRACK 33 AUDIO
    TITLE "10:cjc040_3529"
    INDEX 01 00:38:33
  TRACK 34 AUDIO
    TITLE "0:"
    INDEX 01 00:39:66
  TRACK 35 AUDIO
    TITLE "11:cjc040_3530"
    INDEX 01 00:40:44
  TRACK 36 AUDIO
    TITLE "0:"
    INDEX 01 00:42:06
  TRACK 37 AUDIO
    TITLE "10:cjc040_3531"
    INDEX 01 00:42:61
  TRACK 38 AUDIO
    TITLE "0:"
    INDEX 01 00:43:66
  TRACK 39 AUDIO
    TITLE "11:cjc040_3532"
    INDEX 01 00:44:54
  TRACK 40 AUDIO
    TITLE "0:"
    INDEX 01 00:46:45
  TRACK 41 AUDIO
    TITLE "10:cjc040_3533"
    INDEX 01 00:47:23
  TRACK 42 AUDIO
    TITLE "0:"
    INDEX 01 00:48:36
  TRACK 43 AUDIO
    TITLE "11:cjc040_3534"
    INDEX 01 00:49:20
  TRACK 44 AUDIO
    TITLE "0:"
    INDEX 01 00:51:71
  TRACK 45 AUDIO
    TITLE "10:cjc040_3535"
    INDEX 01 00:52:47
  TRACK 46 AUDIO
    TITLE "0:"
    INDEX 01 00:53:57
  TRACK 47 AUDIO
    TITLE "11:cjc040_3536"
    INDEX 01 00:54:34
  TRACK 48 AUDIO
    TITLE "0:"
    INDEX 01 00:57:11
  TRACK 49 AUDIO
    TITLE "10:cjc040_3537"
    INDEX 01 00:57:66
  TRACK 50 AUDIO
    TITLE "0:"
    INDEX 01 00:59:12
  TRACK 51 AUDIO
    TITLE "11:cjc040_3538"
    INDEX 01 00:59:71
  TRACK 52 AUDIO
    TITLE "0:"
    INDEX 01 01:03:57
  TRACK 53 AUDIO
    TITLE "10:cjc040_3539"
    INDEX 01 01:04:37
  TRACK 54 AUDIO
    TITLE "0:"
    INDEX 01 01:05:36
  TRACK 55 AUDIO
    TITLE "11:cjc040_3540"
    INDEX 01 01:06:16
  TRACK 56 AUDIO
    TITLE "0:"
    INDEX 01 01:08:15
  TRACK 57 AUDIO
    TITLE "10:cjc040_3541"
    INDEX 01 01:08:74
  TRACK 58 AUDIO
    TITLE "0:"
    INDEX 01 01:10:24
  TRACK 59 AUDIO
    TITLE "11:cjc040_3542"
    INDEX 01 01:11:05
  TRACK 60 AUDIO
    TITLE "0:"
    INDEX 01 01:14:21
  TRACK 61 AUDIO
    TITLE "10:cjc040_3543"
    INDEX 01 01:14:72
  TRACK 62 AUDIO
    TITLE "0:"
    INDEX 01 01:16:30
  TRACK 63 AUDIO
    TITLE "11:cjc040_3544"
    INDEX 01 01:17:10
  TRACK 64 AUDIO
    TITLE "0:"
    INDEX 01 01:19:09
  TRACK 65 AUDIO
    TITLE "10:cjc040_3545"
    INDEX 01 01:19:60
  TRACK 66 AUDIO
    TITLE "0:"
    INDEX 01 01:21:00
  TRACK 67 AUDIO
    TITLE "11:cjc040_3546"
    INDEX 01 01:21:59
  TRACK 68 AUDIO
    TITLE "0:"
    INDEX 01 01:23:67
  TRACK 69 AUDIO
    TITLE "10:cjc040_3547"
    INDEX 01 01:24:47
  TRACK 70 AUDIO
    TITLE "0:"
    INDEX 01 01:25:68
  TRACK 71 AUDIO
    TITLE "11:cjc040_3548"
    INDEX 01 01:26:48
  TRACK 72 AUDIO
    TITLE "0:"
    INDEX 01 01:28:69
